<mxfile host="app.diagrams.net" modified="2021-12-13T12:08:53.877Z" agent="5.0 (Macintosh; Intel Mac OS X 10_15_7) AppleWebKit/537.36 (KHTML, like Gecko) Chrome/96.0.4664.55 Safari/537.36" etag="KAP98ZMZOkM3hgLyjVR6" version="15.8.9" type="github">
  <diagram id="kgpKYQtTHZ0yAKxKKP6v" name="Page-1">
    <mxGraphModel dx="1216" dy="630" grid="0" gridSize="10" guides="1" tooltips="1" connect="1" arrows="1" fold="1" page="1" pageScale="1" pageWidth="850" pageHeight="1100" math="0" shadow="0">
      <root>
        <mxCell id="0" />
        <mxCell id="1" parent="0" />
        <mxCell id="3nuBFxr9cyL0pnOWT2aG-1" value="运维" style="shape=umlLifeline;perimeter=lifelinePerimeter;container=1;collapsible=0;recursiveResize=0;rounded=0;shadow=0;strokeWidth=1;" parent="1" vertex="1">
          <mxGeometry x="120" y="80" width="100" height="300" as="geometry" />
        </mxCell>
        <mxCell id="3nuBFxr9cyL0pnOWT2aG-2" value="" style="points=[];perimeter=orthogonalPerimeter;rounded=0;shadow=0;strokeWidth=1;" parent="3nuBFxr9cyL0pnOWT2aG-1" vertex="1">
          <mxGeometry x="45" y="70" width="10" height="190" as="geometry" />
        </mxCell>
        <mxCell id="3nuBFxr9cyL0pnOWT2aG-3" value="故障告警" style="verticalAlign=bottom;startArrow=oval;endArrow=block;startSize=8;shadow=0;strokeWidth=1;" parent="3nuBFxr9cyL0pnOWT2aG-1" target="3nuBFxr9cyL0pnOWT2aG-2" edge="1">
          <mxGeometry relative="1" as="geometry">
            <mxPoint x="-15" y="70" as="sourcePoint" />
          </mxGeometry>
        </mxCell>
        <mxCell id="3nuBFxr9cyL0pnOWT2aG-4" value="" style="points=[];perimeter=orthogonalPerimeter;rounded=0;shadow=0;strokeWidth=1;" parent="3nuBFxr9cyL0pnOWT2aG-1" vertex="1">
          <mxGeometry x="50" y="120" width="10" height="80" as="geometry" />
        </mxCell>
        <mxCell id="3nuBFxr9cyL0pnOWT2aG-5" value="平台1开发者" style="shape=umlLifeline;perimeter=lifelinePerimeter;container=1;collapsible=0;recursiveResize=0;rounded=0;shadow=0;strokeWidth=1;" parent="1" vertex="1">
          <mxGeometry x="300" y="80" width="100" height="300" as="geometry" />
        </mxCell>
        <mxCell id="3nuBFxr9cyL0pnOWT2aG-6" value="" style="points=[];perimeter=orthogonalPerimeter;rounded=0;shadow=0;strokeWidth=1;" parent="3nuBFxr9cyL0pnOWT2aG-5" vertex="1">
          <mxGeometry x="45" y="80" width="10" height="160" as="geometry" />
        </mxCell>
        <mxCell id="3nuBFxr9cyL0pnOWT2aG-7" value="修复" style="verticalAlign=bottom;endArrow=open;dashed=1;endSize=8;exitX=-0.2;exitY=0.938;shadow=0;strokeWidth=1;exitDx=0;exitDy=0;exitPerimeter=0;" parent="1" source="tnxnpziBLrx3pJqhK_E7-2" target="3nuBFxr9cyL0pnOWT2aG-2" edge="1">
          <mxGeometry x="0.3813" y="-7" relative="1" as="geometry">
            <mxPoint x="275" y="236" as="targetPoint" />
            <mxPoint as="offset" />
          </mxGeometry>
        </mxCell>
        <mxCell id="3nuBFxr9cyL0pnOWT2aG-8" value="找人" style="verticalAlign=bottom;endArrow=block;entryX=0;entryY=0;shadow=0;strokeWidth=1;" parent="1" source="3nuBFxr9cyL0pnOWT2aG-2" target="3nuBFxr9cyL0pnOWT2aG-6" edge="1">
          <mxGeometry relative="1" as="geometry">
            <mxPoint x="275" y="160" as="sourcePoint" />
          </mxGeometry>
        </mxCell>
        <mxCell id="3nuBFxr9cyL0pnOWT2aG-9" value="修复" style="verticalAlign=bottom;endArrow=block;entryX=1;entryY=0;shadow=0;strokeWidth=1;" parent="1" source="3nuBFxr9cyL0pnOWT2aG-6" target="3nuBFxr9cyL0pnOWT2aG-4" edge="1">
          <mxGeometry relative="1" as="geometry">
            <mxPoint x="240" y="200" as="sourcePoint" />
          </mxGeometry>
        </mxCell>
        <mxCell id="3nuBFxr9cyL0pnOWT2aG-10" value="找人" style="verticalAlign=bottom;endArrow=open;dashed=1;endSize=8;exitX=1;exitY=0.95;shadow=0;strokeWidth=1;entryX=-0.2;entryY=0.719;entryDx=0;entryDy=0;entryPerimeter=0;" parent="1" source="3nuBFxr9cyL0pnOWT2aG-4" target="tnxnpziBLrx3pJqhK_E7-2" edge="1">
          <mxGeometry x="-0.4054" y="1" relative="1" as="geometry">
            <mxPoint x="240" y="257" as="targetPoint" />
            <mxPoint as="offset" />
          </mxGeometry>
        </mxCell>
        <mxCell id="tnxnpziBLrx3pJqhK_E7-1" value="平台N开发者" style="shape=umlLifeline;perimeter=lifelinePerimeter;container=1;collapsible=0;recursiveResize=0;rounded=0;shadow=0;strokeWidth=1;" vertex="1" parent="1">
          <mxGeometry x="507" y="80" width="100" height="300" as="geometry" />
        </mxCell>
        <mxCell id="tnxnpziBLrx3pJqhK_E7-2" value="" style="points=[];perimeter=orthogonalPerimeter;rounded=0;shadow=0;strokeWidth=1;" vertex="1" parent="tnxnpziBLrx3pJqhK_E7-1">
          <mxGeometry x="45" y="80" width="10" height="160" as="geometry" />
        </mxCell>
        <mxCell id="tnxnpziBLrx3pJqhK_E7-4" value="&lt;b&gt;引入运维后&lt;/b&gt;" style="text;html=1;align=center;verticalAlign=middle;resizable=0;points=[];autosize=1;strokeColor=none;fillColor=none;" vertex="1" parent="1">
          <mxGeometry x="82" y="45" width="70" height="18" as="geometry" />
        </mxCell>
        <mxCell id="tnxnpziBLrx3pJqhK_E7-5" value="开发者" style="shape=umlLifeline;perimeter=lifelinePerimeter;container=1;collapsible=0;recursiveResize=0;rounded=0;shadow=0;strokeWidth=1;" vertex="1" parent="1">
          <mxGeometry x="404" y="80" width="100" height="300" as="geometry" />
        </mxCell>
        <mxCell id="tnxnpziBLrx3pJqhK_E7-6" value="" style="points=[];perimeter=orthogonalPerimeter;rounded=0;shadow=0;strokeWidth=1;" vertex="1" parent="tnxnpziBLrx3pJqhK_E7-5">
          <mxGeometry x="45" y="80" width="10" height="160" as="geometry" />
        </mxCell>
        <mxCell id="tnxnpziBLrx3pJqhK_E7-8" value="代码错误：找开发者" style="verticalAlign=bottom;endArrow=open;dashed=1;endSize=8;shadow=0;strokeWidth=1;" edge="1" parent="tnxnpziBLrx3pJqhK_E7-5">
          <mxGeometry x="0.3813" y="-8" relative="1" as="geometry">
            <mxPoint x="-224" y="159.49999999999994" as="targetPoint" />
            <mxPoint x="43" y="160" as="sourcePoint" />
            <mxPoint as="offset" />
          </mxGeometry>
        </mxCell>
        <mxCell id="tnxnpziBLrx3pJqhK_E7-9" value="修复" style="edgeLabel;html=1;align=center;verticalAlign=middle;resizable=0;points=[];" vertex="1" connectable="0" parent="tnxnpziBLrx3pJqhK_E7-8">
          <mxGeometry x="0.5206" relative="1" as="geometry">
            <mxPoint x="8" y="5" as="offset" />
          </mxGeometry>
        </mxCell>
        <mxCell id="tnxnpziBLrx3pJqhK_E7-7" style="edgeStyle=orthogonalEdgeStyle;rounded=0;orthogonalLoop=1;jettySize=auto;html=1;dashed=1;" edge="1" parent="1" source="3nuBFxr9cyL0pnOWT2aG-4" target="tnxnpziBLrx3pJqhK_E7-5">
          <mxGeometry relative="1" as="geometry">
            <Array as="points">
              <mxPoint x="247" y="230" />
              <mxPoint x="247" y="230" />
            </Array>
          </mxGeometry>
        </mxCell>
        <mxCell id="tnxnpziBLrx3pJqhK_E7-10" value="开发者" style="shape=umlLifeline;perimeter=lifelinePerimeter;container=1;collapsible=0;recursiveResize=0;rounded=0;shadow=0;strokeWidth=1;" vertex="1" parent="1">
          <mxGeometry x="114" y="437" width="100" height="300" as="geometry" />
        </mxCell>
        <mxCell id="tnxnpziBLrx3pJqhK_E7-11" value="" style="points=[];perimeter=orthogonalPerimeter;rounded=0;shadow=0;strokeWidth=1;" vertex="1" parent="tnxnpziBLrx3pJqhK_E7-10">
          <mxGeometry x="45" y="70" width="10" height="190" as="geometry" />
        </mxCell>
        <mxCell id="tnxnpziBLrx3pJqhK_E7-12" value="故障告警" style="verticalAlign=bottom;startArrow=oval;endArrow=block;startSize=8;shadow=0;strokeWidth=1;" edge="1" parent="tnxnpziBLrx3pJqhK_E7-10" target="tnxnpziBLrx3pJqhK_E7-11">
          <mxGeometry relative="1" as="geometry">
            <mxPoint x="-15" y="70" as="sourcePoint" />
          </mxGeometry>
        </mxCell>
        <mxCell id="tnxnpziBLrx3pJqhK_E7-13" value="" style="points=[];perimeter=orthogonalPerimeter;rounded=0;shadow=0;strokeWidth=1;" vertex="1" parent="tnxnpziBLrx3pJqhK_E7-10">
          <mxGeometry x="50" y="120" width="10" height="80" as="geometry" />
        </mxCell>
        <mxCell id="tnxnpziBLrx3pJqhK_E7-14" value="平台1开发者" style="shape=umlLifeline;perimeter=lifelinePerimeter;container=1;collapsible=0;recursiveResize=0;rounded=0;shadow=0;strokeWidth=1;" vertex="1" parent="1">
          <mxGeometry x="294" y="437" width="100" height="300" as="geometry" />
        </mxCell>
        <mxCell id="tnxnpziBLrx3pJqhK_E7-15" value="" style="points=[];perimeter=orthogonalPerimeter;rounded=0;shadow=0;strokeWidth=1;" vertex="1" parent="tnxnpziBLrx3pJqhK_E7-14">
          <mxGeometry x="45" y="80" width="10" height="160" as="geometry" />
        </mxCell>
        <mxCell id="tnxnpziBLrx3pJqhK_E7-16" value="修复" style="verticalAlign=bottom;endArrow=open;dashed=1;endSize=8;exitX=-0.2;exitY=0.938;shadow=0;strokeWidth=1;exitDx=0;exitDy=0;exitPerimeter=0;" edge="1" parent="1" source="tnxnpziBLrx3pJqhK_E7-21" target="tnxnpziBLrx3pJqhK_E7-11">
          <mxGeometry x="0.3813" y="-7" relative="1" as="geometry">
            <mxPoint x="269" y="593" as="targetPoint" />
            <mxPoint as="offset" />
          </mxGeometry>
        </mxCell>
        <mxCell id="tnxnpziBLrx3pJqhK_E7-17" value="找人" style="verticalAlign=bottom;endArrow=block;entryX=0;entryY=0;shadow=0;strokeWidth=1;" edge="1" parent="1" source="tnxnpziBLrx3pJqhK_E7-11" target="tnxnpziBLrx3pJqhK_E7-15">
          <mxGeometry relative="1" as="geometry">
            <mxPoint x="269" y="517" as="sourcePoint" />
          </mxGeometry>
        </mxCell>
        <mxCell id="tnxnpziBLrx3pJqhK_E7-18" value="修复" style="verticalAlign=bottom;endArrow=block;entryX=1;entryY=0;shadow=0;strokeWidth=1;" edge="1" parent="1" source="tnxnpziBLrx3pJqhK_E7-15" target="tnxnpziBLrx3pJqhK_E7-13">
          <mxGeometry relative="1" as="geometry">
            <mxPoint x="234" y="557" as="sourcePoint" />
          </mxGeometry>
        </mxCell>
        <mxCell id="tnxnpziBLrx3pJqhK_E7-19" value="找人" style="verticalAlign=bottom;endArrow=open;dashed=1;endSize=8;exitX=1;exitY=0.95;shadow=0;strokeWidth=1;entryX=-0.2;entryY=0.719;entryDx=0;entryDy=0;entryPerimeter=0;" edge="1" parent="1" source="tnxnpziBLrx3pJqhK_E7-13" target="tnxnpziBLrx3pJqhK_E7-21">
          <mxGeometry x="-0.4054" y="1" relative="1" as="geometry">
            <mxPoint x="234" y="614" as="targetPoint" />
            <mxPoint as="offset" />
          </mxGeometry>
        </mxCell>
        <mxCell id="tnxnpziBLrx3pJqhK_E7-20" value="平台N开发者" style="shape=umlLifeline;perimeter=lifelinePerimeter;container=1;collapsible=0;recursiveResize=0;rounded=0;shadow=0;strokeWidth=1;" vertex="1" parent="1">
          <mxGeometry x="501" y="437" width="100" height="300" as="geometry" />
        </mxCell>
        <mxCell id="tnxnpziBLrx3pJqhK_E7-21" value="" style="points=[];perimeter=orthogonalPerimeter;rounded=0;shadow=0;strokeWidth=1;" vertex="1" parent="tnxnpziBLrx3pJqhK_E7-20">
          <mxGeometry x="45" y="80" width="10" height="160" as="geometry" />
        </mxCell>
        <mxCell id="tnxnpziBLrx3pJqhK_E7-44" value="&lt;b&gt;引入运维前&lt;/b&gt;" style="text;html=1;align=center;verticalAlign=middle;resizable=0;points=[];autosize=1;strokeColor=none;fillColor=none;" vertex="1" parent="1">
          <mxGeometry x="82" y="406" width="70" height="18" as="geometry" />
        </mxCell>
      </root>
    </mxGraphModel>
  </diagram>
</mxfile>
